<svg xmlns="http://www.w3.org/2000/svg" width="20" height="20" viewBox="0 0 20 20">
    <g fill="#CCC" fill-rule="evenodd">
        <path d="M5.974 0H1.13C.507 0 0 .507 0 1.13v2.906c0 .624.507 1.13 1.13 1.13h4.844c.623 0 1.13-.506 1.13-1.13V1.13C7.104.507 6.597 0 5.974 0M5.974 6.458H1.13c-.623 0-1.13.507-1.13 1.13v6.782c0 .623.507 1.13 1.13 1.13h4.844c.623 0 1.13-.507 1.13-1.13V7.588c0-.623-.507-1.13-1.13-1.13M14.37 10.333H9.526c-.623 0-1.13.507-1.13 1.13v2.907c0 .623.507 1.13 1.13 1.13h4.844c.623 0 1.13-.507 1.13-1.13v-2.906c0-.624-.507-1.13-1.13-1.13M14.37 0H9.526c-.623 0-1.13.507-1.13 1.13v6.781c0 .624.507 1.13 1.13 1.13h4.844c.623 0 1.13-.506 1.13-1.13v-6.78C15.5.506 14.993 0 14.37 0" transform="translate(2.25 2.25)"/>
    </g>
</svg>
