<svg xmlns="http://www.w3.org/2000/svg" width="14" height="14" viewBox="0 0 14 14">
    <path fill="#4D4D4D" d="M7 0C3.142 0 0 3.142 0 7s3.142 7 7 7 7-3.142 7-7-3.142-7-7-7zm0 1.077c3.277 0 5.923 2.646 5.923 5.923S10.277 12.923 7 12.923 1.077 10.277 1.077 7 3.723 1.077 7 1.077zm.063 2.154C5.76 3.306 4.695 4.4 4.695 5.73h1.077c0-.875.757-1.561 1.682-1.401.66.113 1.182.761 1.161 1.443-.016.597-.366.976-.879 1.203-.32.143-.622.277-.879.547-.257.269-.395.669-.395 1.093h1.076c0-.244.034-.281.101-.353.064-.067.24-.172.53-.303.804-.349 1.494-1.119 1.523-2.154.038-1.224-.841-2.33-2.057-2.54-.193-.03-.387-.043-.572-.034zm-.601 6.461v1.077h1.076V9.692H6.462z"/>
</svg>
